<svg xmlns="http://www.w3.org/2000/svg" viewBox="0 0 1460 1980" role="img" aria-labelledby="title desc">
<title id="title">RF03: UML de clases</title><desc id="desc">Referencias con visibilidad, multiplicidad y readOnly. Cuatro subclases del Handler abstracto; servicios simulados.</desc>
<defs><marker id="arrow" markerWidth="10" markerHeight="10" refX="9" refY="5" orient="auto"><path d="M1 1 L9 5 L1 9" fill="none" stroke="#66418b" stroke-width="1.5"/></marker><marker id="sync" markerWidth="10" markerHeight="10" refX="9" refY="5" orient="auto"><path d="M1 1 L9 5 L1 9 Z" fill="#66418b" stroke="#66418b"/></marker><marker id="inherit" markerWidth="16" markerHeight="14" refX="14" refY="7" orient="auto"><path d="M1 1 L14 7 L1 13 Z" fill="white" stroke="#66418b" stroke-width="1.5"/></marker></defs>
<rect width="1460" height="1980" fill="#faf8fe"/>
<style>text{font-family:system-ui,Segoe UI,sans-serif;fill:#30213f}.title{font-size:21px;font-weight:700}.member{font-size:14px}.role{font-size:13px;fill:#6b4b88}.edge{fill:none;stroke:#66418b;stroke-width:2}</style>
<text x="35" y="38" class="title" >RF03 · UML de clases</text>
<text x="35" y="65" class="role" >Referencias solo como atributos: visibilidad, multiplicidad y {readOnly}. Sin asociaciones duplicadas.</text>
<path data-subclass="AuditoriaMiddleware" d="M195.0 450 V410 H722 V350" class="edge" marker-end="url(#inherit)"/>
<path data-subclass="AutenticacionMiddleware" d="M547.5 450 V410 H722 V350" class="edge" marker-end="url(#inherit)"/>
<path data-subclass="AutorizacionMiddleware" d="M905.0 450 V410 H722 V350" class="edge" marker-end="url(#inherit)"/>
<path data-subclass="RadicarPropuestaHandler" d="M1260.0 450 V410 H722 V350" class="edge" marker-end="url(#inherit)"/>
<path d="M1000 275 H965 V320 H940" class="edge" stroke-dasharray="6 4" marker-end="url(#arrow)"/>
<text x="945" y="350" class="role" >compone la cadena</text>
<path data-dependency="construye" d="M1100 302 V385 H230 V350" class="edge" stroke-dasharray="6 4" marker-end="url(#arrow)"/>
<text x="350" y="375" class="role" >construye</text>
<text x="35" y="695" class="title" >Servicios referenciados por los manejadores · todos simulados</text>
<text x="35" y="1060" class="title" >Contexto, respuesta y apoyo · tipos reales del proyecto</text>
<g data-class="ClienteRadicacion">
<rect x="35" y="90" width="390" height="260" rx="6" fill="white" stroke="#b9a6cd"/>
<rect x="35" y="90" width="390" height="70" rx="6" fill="#eee5fa"/>
<text x="47" y="117" class="title" style="font-size:19px">ClienteRadicacion</text>
<text x="47" y="140" class="role" >Client</text>
<text x="47" y="182" class="member" >- cabeza: ManejadorSeguridad [1] {readOnly}</text>
<text x="47" y="206" class="member" >- auditoria: RegistroAuditoriaEnMemoria [1]</text>
<text x="47" y="230" class="member" >{readOnly}</text>
<text x="47" y="254" class="member" >- repositorio: RepositorioPropuestasEnMemoria [1]</text>
<text x="47" y="278" class="member" >{readOnly}</text>
<path d="M35 290 H425" stroke="#ded4e8"/>
<text x="47" y="302" class="member" >+ ejecutar(token: String, titulo: String):</text>
<text x="47" y="326" class="member" >Ejecucion</text>
</g>
<g data-class="ManejadorSeguridad">
<rect x="505" y="90" width="435" height="260" rx="6" fill="white" stroke="#b9a6cd"/>
<rect x="505" y="90" width="435" height="70" rx="6" fill="#eee5fa"/>
<text x="517" y="117" class="title" style="font-size:19px" font-style="italic">ManejadorSeguridad</text>
<text x="517" y="140" class="role" >abstract · Handler</text>
<text x="517" y="182" class="member" ># siguiente: ManejadorSeguridad [0..1] {readOnly}</text>
<path d="M505 194 H940" stroke="#ded4e8"/>
<text x="517" y="206" class="member"  font-style="italic">+ procesar(solicitud: SolicitudRadicacion):</text>
<text x="517" y="230" class="member"  font-style="italic">RespuestaRadicacion</text>
<text x="517" y="254" class="member" ># continuar(solicitud: SolicitudRadicacion):</text>
<text x="517" y="278" class="member" >RespuestaRadicacion</text>
<text x="517" y="302" class="member" ># marcarNoEjecutados(solicitud: SolicitudRadicacion,</text>
<text x="517" y="326" class="member" >codigo: int): void</text>
</g>
<g data-class="ConfiguracionCadena">
<rect x="1000" y="90" width="405" height="212" rx="6" fill="white" stroke="#b9a6cd"/>
<rect x="1000" y="90" width="405" height="70" rx="6" fill="#eee5fa"/>
<text x="1012" y="117" class="title" style="font-size:19px">ConfiguracionCadena</text>
<text x="1012" y="140" class="role" >Composición Spring</text>
<text x="1012" y="182" class="member" >+ cliente(repositorio:</text>
<text x="1012" y="206" class="member" >RepositorioPropuestasEnMemoria, auditoria:</text>
<text x="1012" y="230" class="member" >RegistroAuditoriaEnMemoria): ClienteRadicacion</text>
<text x="1012" y="254" class="member" >+ repositorio(): RepositorioPropuestasEnMemoria</text>
<text x="1012" y="278" class="member" >+ auditoria(): RegistroAuditoriaEnMemoria</text>
</g>
<g data-class="AuditoriaMiddleware">
<rect x="35" y="450" width="320" height="212" rx="6" fill="white" stroke="#b9a6cd"/>
<rect x="35" y="450" width="320" height="70" rx="6" fill="#eee5fa"/>
<text x="47" y="477" class="title" style="font-size:19px">AuditoriaMiddleware</text>
<text x="47" y="500" class="role" >ConcreteHandler</text>
<text x="47" y="542" class="member" >- registro: RegistroAuditoriaEnMemoria</text>
<text x="47" y="566" class="member" >[1] {readOnly}</text>
<path d="M35 578 H355" stroke="#ded4e8"/>
<text x="47" y="590" class="member" >+ procesar(solicitud:</text>
<text x="47" y="614" class="member" >SolicitudRadicacion):</text>
<text x="47" y="638" class="member" >RespuestaRadicacion</text>
</g>
<g data-class="AutenticacionMiddleware">
<rect x="385" y="450" width="325" height="188" rx="6" fill="white" stroke="#b9a6cd"/>
<rect x="385" y="450" width="325" height="70" rx="6" fill="#eee5fa"/>
<text x="397" y="477" class="title" style="font-size:19px">AutenticacionMiddleware</text>
<text x="397" y="500" class="role" >ConcreteHandler</text>
<text x="397" y="542" class="member" >- validador: ValidadorTokenSimulado [1]</text>
<text x="397" y="566" class="member" >{readOnly}</text>
<path d="M385 578 H710" stroke="#ded4e8"/>
<text x="397" y="590" class="member" >+ procesar(solicitud:</text>
<text x="397" y="614" class="member" >SolicitudRadicacion): RespuestaRadicacion</text>
</g>
<g data-class="AutorizacionMiddleware">
<rect x="740" y="450" width="330" height="188" rx="6" fill="white" stroke="#b9a6cd"/>
<rect x="740" y="450" width="330" height="70" rx="6" fill="#eee5fa"/>
<text x="752" y="477" class="title" style="font-size:19px">AutorizacionMiddleware</text>
<text x="752" y="500" class="role" >ConcreteHandler</text>
<text x="752" y="542" class="member" >- politica: PoliticaPermisosSimulada [1]</text>
<text x="752" y="566" class="member" >{readOnly}</text>
<path d="M740 578 H1070" stroke="#ded4e8"/>
<text x="752" y="590" class="member" >+ procesar(solicitud:</text>
<text x="752" y="614" class="member" >SolicitudRadicacion): RespuestaRadicacion</text>
</g>
<g data-class="RadicarPropuestaHandler">
<rect x="1100" y="450" width="320" height="236" rx="6" fill="white" stroke="#b9a6cd"/>
<rect x="1100" y="450" width="320" height="70" rx="6" fill="#eee5fa"/>
<text x="1112" y="477" class="title" style="font-size:19px">RadicarPropuestaHandler</text>
<text x="1112" y="500" class="role" >ConcreteHandler · terminal</text>
<text x="1112" y="542" class="member" >- repositorio:</text>
<text x="1112" y="566" class="member" >RepositorioPropuestasEnMemoria [1]</text>
<text x="1112" y="590" class="member" >{readOnly}</text>
<path d="M1100 602 H1420" stroke="#ded4e8"/>
<text x="1112" y="614" class="member" >+ procesar(solicitud:</text>
<text x="1112" y="638" class="member" >SolicitudRadicacion):</text>
<text x="1112" y="662" class="member" >RespuestaRadicacion</text>
</g>
<g data-class="RegistroAuditoriaEnMemoria">
<rect x="35" y="720" width="320" height="260" rx="6" fill="white" stroke="#b9a6cd"/>
<rect x="35" y="720" width="320" height="70" rx="6" fill="#eee5fa"/>
<text x="47" y="747" class="title" style="font-size:16px">RegistroAuditoriaEnMemoria</text>
<text x="47" y="770" class="role" >Servicio simulado</text>
<text x="47" y="812" class="member" >- registros:</text>
<text x="47" y="836" class="member" >CopyOnWriteArrayList&lt;Registro&gt;</text>
<text x="47" y="860" class="member" >{readOnly}</text>
<path d="M35 872 H355" stroke="#ded4e8"/>
<text x="47" y="884" class="member" >+ registrar(solicitud:</text>
<text x="47" y="908" class="member" >SolicitudRadicacion, respuesta:</text>
<text x="47" y="932" class="member" >RespuestaRadicacion): Registro</text>
<text x="47" y="956" class="member" >+ listar(): List&lt;Registro&gt;</text>
</g>
<g data-class="ValidadorTokenSimulado">
<rect x="385" y="720" width="325" height="188" rx="6" fill="white" stroke="#b9a6cd"/>
<rect x="385" y="720" width="325" height="70" rx="6" fill="#eee5fa"/>
<text x="397" y="747" class="title" style="font-size:19px">ValidadorTokenSimulado</text>
<text x="397" y="770" class="role" >Servicio simulado</text>
<text x="397" y="812" class="member" >- identidades: Map&lt;String,</text>
<text x="397" y="836" class="member" >IdentidadSimulada&gt; {readOnly}</text>
<path d="M385 848 H710" stroke="#ded4e8"/>
<text x="397" y="860" class="member" >+ validar(token: String):</text>
<text x="397" y="884" class="member" >Optional&lt;IdentidadSimulada&gt;</text>
</g>
<g data-class="PoliticaPermisosSimulada">
<rect x="740" y="720" width="330" height="140" rx="6" fill="white" stroke="#b9a6cd"/>
<rect x="740" y="720" width="330" height="70" rx="6" fill="#eee5fa"/>
<text x="752" y="747" class="title" style="font-size:19px">PoliticaPermisosSimulada</text>
<text x="752" y="770" class="role" >Servicio simulado</text>
<text x="752" y="812" class="member" >+ puedeRadicar(identidad:</text>
<text x="752" y="836" class="member" >IdentidadSimulada): boolean</text>
</g>
<g data-class="RepositorioPropuestasEnMemoria">
<rect x="1100" y="720" width="320" height="236" rx="6" fill="white" stroke="#b9a6cd"/>
<rect x="1100" y="720" width="320" height="70" rx="6" fill="#eee5fa"/>
<text x="1112" y="747" class="title" style="font-size:16px">RepositorioPropuestasEnMemoria</text>
<text x="1112" y="770" class="role" >Almacenamiento en memoria</text>
<text x="1112" y="812" class="member" >- propuestas: ConcurrentHashMap&lt;String,</text>
<text x="1112" y="836" class="member" >Propuesta&gt; {readOnly}</text>
<text x="1112" y="860" class="member" >- secuencia: AtomicInteger {readOnly}</text>
<path d="M1100 872 H1420" stroke="#ded4e8"/>
<text x="1112" y="884" class="member" >+ guardar(solicitud:</text>
<text x="1112" y="908" class="member" >SolicitudRadicacion): String</text>
<text x="1112" y="932" class="member" >+ listar(): List&lt;Propuesta&gt;</text>
</g>
<g data-class="SolicitudRadicacion">
<rect x="35" y="1090" width="440" height="284" rx="6" fill="white" stroke="#b9a6cd"/>
<rect x="35" y="1090" width="440" height="70" rx="6" fill="#eee5fa"/>
<text x="47" y="1117" class="title" style="font-size:19px">SolicitudRadicacion</text>
<text x="47" y="1140" class="role" >Contexto por petición</text>
<text x="47" y="1182" class="member" >- id: String {readOnly}</text>
<text x="47" y="1206" class="member" >- token: String (no serializado) {readOnly}</text>
<text x="47" y="1230" class="member" >- titulo: String {readOnly}</text>
<text x="47" y="1254" class="member" >- identidad: IdentidadSimulada [0..1]</text>
<text x="47" y="1278" class="member" >- traza: List&lt;EventoTraza&gt; {readOnly}</text>
<path d="M35 1290 H475" stroke="#ded4e8"/>
<text x="47" y="1302" class="member" >+ autenticar(identidad: IdentidadSimulada): void</text>
<text x="47" y="1326" class="member" >+ evento(...): void</text>
<text x="47" y="1350" class="member" >+ traza(): List&lt;EventoTraza&gt;</text>
</g>
<g data-class="RespuestaRadicacion">
<rect x="520" y="1090" width="405" height="164" rx="6" fill="white" stroke="#b9a6cd"/>
<rect x="520" y="1090" width="405" height="70" rx="6" fill="#eee5fa"/>
<text x="532" y="1117" class="title" style="font-size:19px">RespuestaRadicacion</text>
<text x="532" y="1140" class="role" >record · resultado</text>
<text x="532" y="1182" class="member" >- codigo: int {readOnly}</text>
<text x="532" y="1206" class="member" >- mensaje: String {readOnly}</text>
<text x="532" y="1230" class="member" >- propuestaId: String [0..1] {readOnly}</text>
</g>
<g data-class="EventoTraza">
<rect x="975" y="1090" width="445" height="236" rx="6" fill="white" stroke="#b9a6cd"/>
<rect x="975" y="1090" width="445" height="70" rx="6" fill="#eee5fa"/>
<text x="987" y="1117" class="title" style="font-size:19px">EventoTraza</text>
<text x="987" y="1140" class="role" >record · instantánea</text>
<text x="987" y="1182" class="member" >- paso: int {readOnly}; manejador, metodo: String</text>
<text x="987" y="1206" class="member" >{readOnly}</text>
<text x="987" y="1230" class="member" >- estado, direccion, accion, motivo: String {readOnly}</text>
<text x="987" y="1254" class="member" >- identidad, titulo: String {readOnly}; codigo: Integer</text>
<text x="987" y="1278" class="member" >{readOnly}</text>
<text x="987" y="1302" class="member" >- archivo, fragmento, explicacion: String {readOnly}</text>
</g>
<g data-class="IdentidadSimulada">
<rect x="520" y="1390" width="405" height="164" rx="6" fill="white" stroke="#b9a6cd"/>
<rect x="520" y="1390" width="405" height="70" rx="6" fill="#eee5fa"/>
<text x="532" y="1417" class="title" style="font-size:19px">IdentidadSimulada</text>
<text x="532" y="1440" class="role" >record · perfil del validador</text>
<text x="532" y="1482" class="member" >- usuario: String {readOnly}</text>
<text x="532" y="1506" class="member" >- perfil: Perfil (INVESTIGADOR | EVALUADOR)</text>
<text x="532" y="1530" class="member" >{readOnly}</text>
</g>
<g data-class="RadicacionController">
<rect x="35" y="1570" width="440" height="236" rx="6" fill="white" stroke="#b9a6cd"/>
<rect x="35" y="1570" width="440" height="70" rx="6" fill="#eee5fa"/>
<text x="47" y="1597" class="title" style="font-size:19px">RadicacionController</text>
<text x="47" y="1620" class="role" >Adaptador HTTP externo al patrón</text>
<text x="47" y="1662" class="member" >- cliente: ClienteRadicacion [1] {readOnly}</text>
<text x="47" y="1686" class="member" >- repositorio: RepositorioPropuestasEnMemoria [1]</text>
<text x="47" y="1710" class="member" >{readOnly}</text>
<text x="47" y="1734" class="member" >- auditoria: RegistroAuditoriaEnMemoria [1] {readOnly}</text>
<path d="M35 1746 H475" stroke="#ded4e8"/>
<text x="47" y="1758" class="member" >+ radicar(entrada: Entrada): ResponseEntity&lt;Ejecucion&gt;</text>
<text x="47" y="1782" class="member" >+ propuestas(), auditoria(), jsonInvalido()</text>
</g>
<g data-class="FragmentosFuente">
<rect x="975" y="1570" width="445" height="116" rx="6" fill="white" stroke="#b9a6cd"/>
<rect x="975" y="1570" width="445" height="70" rx="6" fill="#eee5fa"/>
<text x="987" y="1597" class="title" style="font-size:19px">FragmentosFuente</text>
<text x="987" y="1620" class="role" >Utilidad de documentación</text>
<text x="987" y="1662" class="member"  text-decoration="underline">+ leer(clase: String, clave: String): String</text>
</g>
<text x="35" y="1890" class="role" >Triángulo vacío = herencia; línea discontinua = dependencia. Constructores, getters y records anidados abreviados.</text>
<text x="35" y="1916" class="role" >El sucesor se fija mediante constructor; no hay setters. Terminal: siguiente = null.</text>
<text x="35" y="1942" class="role" >Servicios y almacenamiento simulados; no representan seguridad de producción.</text>
<text x="35" y="1968" class="role" >{readOnly} indica referencia final; no implica inmutabilidad del contenido de las colecciones.</text>
</svg>
